<?xml version="1.0" encoding="UTF-8"?>
<svg id="Layer_1" data-name="Layer 1" xmlns="http://www.w3.org/2000/svg" viewBox="0 0 316.96 283.92">
  <defs>
    <style>
      .cls-1 {
        fill: #bc0000;
      }

      .cls-2 {
        fill: #bebe00;
      }

      .cls-3 {
        fill: #fefefe;
      }
    </style>
  </defs>
  <path d="M227.89,17.75c.05-5.9-.03-11.85,0-17.75h35.63c.03,5.9-.05,11.85,0,17.75,5.92.04,11.9-.03,17.82,0,.19,35.47-.28,71.01,0,106.48,5.92.1,11.9-.07,17.82,0v17.75c-5.93-.1-11.9.07-17.82,0-.02-5.9.05-11.85,0-17.75-5.92-.1-11.9.07-17.82,0-.19-35.47.28-71.01,0-106.48-11.85-.09-23.78-.09-35.63,0-.27,35.47.2,71.01,0,106.48-5.92.06-11.9-.1-17.82,0-.04,5.9.03,11.85,0,17.75-5.92.06-11.9-.1-17.82,0,0,5.9,0,11.84,0,17.75h106.88c0-5.9,0-11.84,0-17.75,5.92.1,11.89-.07,17.81,0v141.96H0v-17.75h174.45v-124.22c5.92-.07,11.89.1,17.81,0v-17.75c5.92-.06,11.89.1,17.81,0,.27-35.47-.2-71.01,0-106.48,5.92-.02,11.9.05,17.82,0ZM263.52,266.18h35.63v-70.98h-106.88v70.98h106.88v-70.98h-106.88v70.98h71.25Z"/>
  <path class="cls-2" d="M263.52,17.75c.27,35.47-.2,71.01,0,106.48,5.92.06,11.9-.1,17.82,0,.04,5.9-.03,11.85,0,17.75,5.92.06,11.9-.1,17.82,0,0,5.9,0,11.84,0,17.75h-106.88c0-5.9,0-11.84,0-17.75,5.92-.1,11.9.07,17.82,0,.02-5.9-.05-11.85,0-17.75,5.92-.1,11.9.07,17.82,0,.19-35.47-.28-71.01,0-106.48,11.85-.09,23.78-.09,35.63,0Z"/>
  <g>
    <polygon class="cls-3" points="210.08 266.18 192.27 266.18 192.27 195.2 299.14 195.2 299.14 266.18 192.27 266.18 192.27 195.2 299.14 195.2 299.14 266.18 299.14 266.18 263.52 266.18 263.52 212.94 245.7 212.94 245.7 266.18 227.89 266.18 227.89 212.94 210.08 212.94 210.08 266.18"/>
    <rect class="cls-1" x="210.08" y="212.94" width="17.81" height="53.24"/>
    <rect class="cls-1" x="245.7" y="212.94" width="17.81" height="53.24"/>
  </g>
</svg>